<?xml version="1.0" encoding="UTF-8"?>
<svg viewBox="0 0 707.41602 398.8428" xmlns="http://www.w3.org/2000/svg" xmlns:xlink="http://www.w3.org/1999/xlink">
 <defs>
  <linearGradient id="a">
   <stop stop-color="#676767" offset="0"/>
   <stop stop-color="#fff" offset=".02"/>
   <stop stop-color="#dfdfe1" offset=".04"/>
   <stop stop-color="#efeff0" offset=".96"/>
   <stop stop-color="#fff" offset=".98"/>
   <stop stop-color="#676767" offset="1"/>
  </linearGradient>
  <linearGradient id="b">
   <stop stop-color="#fff" offset="0"/>
   <stop stop-opacity="0" offset="1"/>
  </linearGradient>
  <linearGradient id="j" x1="130.31" x2="611.14" gradientUnits="userSpaceOnUse">
   <stop stop-color="#9c5da6" offset="0"/>
   <stop stop-color="#5b325b" offset="1"/>
  </linearGradient>
  <linearGradient id="i" x2="0" y1="452.13" y2="459.11" gradientUnits="userSpaceOnUse">
   <stop stop-color="#e5e6e8" offset="0"/>
   <stop stop-color="#4c5252" offset="1"/>
  </linearGradient>
  <linearGradient id="g" x1="702.75" x2="698.2" y1="481.39" y2="475.5" gradientUnits="userSpaceOnUse">
   <stop offset="0"/>
   <stop stop-color="#fbfcff" stop-opacity="0" offset="1"/>
  </linearGradient>
  <linearGradient id="f" x2="0" y1="470.72" y2="482.49" gradientUnits="userSpaceOnUse">
   <stop stop-color="#8f9091" offset="0"/>
   <stop stop-color="#323b3b" offset="1"/>
  </linearGradient>
  <linearGradient id="e" x2="0" y1="467.95" y2="482.01" gradientUnits="userSpaceOnUse">
   <stop stop-color="#d3d5d7" offset="0"/>
   <stop stop-color="#86898a" offset=".5"/>
   <stop stop-color="#171b1b" offset="1"/>
  </linearGradient>
  <linearGradient id="d" x1="38.15" x2="43.948" y1="479.5" y2="473.95" gradientTransform="matrix(1.0578 0 0 1.0104 -4.9081 -7.6835)" gradientUnits="userSpaceOnUse">
   <stop stop-opacity=".3035" offset="0"/>
   <stop stop-color="#fbfcff" stop-opacity="0" offset="1"/>
  </linearGradient>
  <linearGradient id="l" x1="520.16" x2="652.69" y1="100.48" y2="427.62" gradientUnits="userSpaceOnUse" xlink:href="#b"/>
  <linearGradient id="k" x1="18.132" x2="725.57" gradientUnits="userSpaceOnUse" xlink:href="#a"/>
  <linearGradient id="h" x1="18.113" x2="725.59" gradientUnits="userSpaceOnUse" xlink:href="#a"/>
  <radialGradient id="c" cx="368.78" cy="101.4" r="3.4688" gradientUnits="userSpaceOnUse" xlink:href="#b"/>
 </defs>
 <g transform="translate(-18.142 -83.649)">
  <path d="m50.343 458.94h642.02c10.972 0 19.805 4.5946 19.805 10.302l2.1078 5.7185c-7.7286 4.3197-10.941 7.5268-21.912 7.5268h-642.02c-10.972 0-22.772-7.0475-25.493-11.283l7.6672-1.2264c0-5.7073 6.8542-11.038 17.826-11.038z" fill="url(#f)"/>
  <path d="m35.312 447.96c-7.0299 0-13.166 2.6609-16.656 6.6779v13.863c0 0.49441-0.03054 0.97629-0.0625 1.4608 3.4788 4.057 9.6472 6.7674 16.719 6.7674h672.09c7.6508 0 14.228-3.1831 17.5-7.8108-0.2201-1.1244-0.34375-2.2711-0.34375-3.4582v-10.226c-3.3828-4.348-9.7808-7.2742-17.156-7.2742h-672.09z" fill="url(#e)"/>
  <path d="m699.43 482.26 9.6188-4.8564c10.843-2.0813 15.565-8.3252 15.565-8.3252l-30.78-0.17345-15.215 13.182 20.812 0.17343z" fill="url(#g)" fill-rule="evenodd" opacity=".2836"/>
  <path d="m121.03 84.649h502.43a19.999 21.165 0 0 1 19.999 21.165v342.51a19.999 21.165 0 0 1 -19.999 21.165h-502.43a19.999 21.165 0 0 1 -19.999 -21.165v-342.51a19.999 21.165 0 0 1 19.999 -21.165" fill="#d0d0d2" stroke="#b3b7b7" stroke-linecap="round" stroke-linejoin="bevel" stroke-width="2"/>
  <path d="m120.91 88.266h501.76a17 17 0 0 1 17 17v342.78a17 17 0 0 1 -17 17h-501.76a17 17 0 0 1 -17 -17v-342.78a17 17 0 0 1 17 -17" stroke="#000" stroke-linecap="round" stroke-linejoin="bevel" stroke-width="1.0088"/>
  <path d="m130.31 113.93h480.83v305.12h-480.83z" fill="url(#j)" opacity=".8706"/>
  <path d="m533.41 88.935-198.8 364.09 303.8 1.016s0.97521-330.92 0.56489-345.69c-0.42956-15.466-6.9647-19.021-20.476-19.192-14.205-0.17888-85.093-0.22062-85.093-0.22062z" fill="url(#l)" fill-rule="evenodd" opacity=".2637"/>
  <path transform="matrix(1.2563 0 0 1.2563 -94.56 -25.955)" d="m372.25 100.72a3.4688 3.2954 0 1 1 -6.9377 0 3.4688 3.2954 0 1 1 6.9377 0z" fill="url(#c)" opacity=".1642"/>
  <path d="m18.602 447.98h706.5v20.852h-706.5z" fill="url(#k)" stroke="url(#h)" stroke-linecap="round" stroke-linejoin="bevel" stroke-width=".9199"/>
  <path d="m18.57 469.25 15.782 0.3505 16.658 4.2059 13.576 6.6593-22.162 0.70097-11.741-4.5564c-9.9068-2.8039-12.113-7.3603-12.113-7.3603z" fill="url(#d)" fill-rule="evenodd" opacity=".7761"/>
  <path d="m315.17 447.12v1.8128c0 5.6381 4.4596 10.177 9.9992 10.177h86.931c5.5396 0 9.9992-4.539 9.9992-10.177v-1.8128h-106.93z" fill="url(#i)" opacity=".8706" stroke="#707575" stroke-linecap="round" stroke-linejoin="bevel" stroke-opacity=".5126" stroke-width=".94421"/>
  <path d="m657.11 457.3h25.755v2.6981h-25.755z" opacity=".8657" stroke="#999c9c" stroke-linecap="round" stroke-linejoin="bevel"/>
  <path d="m103.41 446.67h536.71v0.8349h-536.71z" fill="#595c5c"/>
  <text x="344.03226" y="436.30844" font-family="Futura" font-size="74.736" opacity=".5622">
   <tspan x="344.03226" y="436.30844" fill="#fff" font-family="Lucida Grande" font-size="9.1142">MoonBook</tspan>
  </text>
 </g>
</svg>
